<svg width="219" height="28" viewBox="0 0 219 28" fill="none" xmlns="http://www.w3.org/2000/svg">
<path d="M10.582 17.8984H16.1602L13.4258 8.79297H13.3203L10.582 17.8984ZM8.71094 23.3008L7.30859 27.1523H0L10.6914 0.515625H16.0547L26.6367 27.1523H19.2578L17.9609 23.3008H8.71094Z" fill="#F68712"/>
<path d="M31.7148 6.48828H26.4609V0.515625H43.7383V6.48828H38.5195V27.1523H31.7148V6.48828Z" fill="#F68712"/>
<path d="M49.6797 6.48828H44.4258V0.515625H61.7031V6.48828H56.4844V27.1523H49.6797V6.48828Z" fill="#F68712"/>
<path d="M64.4414 27.1523H71.2422V0.515625H64.4414V27.1523Z" fill="#F68712"/>
<path d="M76.3242 0.515625H79.9219L94.7891 22.6172H94.8594V0.515625H97.5234V27.1523H94.8594L79.0586 3.71875H78.9844V27.1523H76.3242V0.515625Z" fill="#231F20"/>
<path d="M101.379 0.515625H115.957V2.92578H104.043V12.5H115.562V14.9141H104.043V24.7383H115.957V27.1523H101.379V0.515625Z" fill="#231F20"/>
<path d="M132.336 25.207C138.492 25.207 143.781 20.2031 143.781 13.8711C143.781 7.64062 138.637 2.45703 132.336 2.45703C126.324 2.45703 120.926 7.35547 120.926 13.9766C120.926 20.0586 126.145 25.207 132.336 25.207ZM132.336 0.046875C139.824 0.046875 146.445 5.98438 146.445 13.832C146.445 21.6797 139.789 27.6211 132.336 27.6211C124.777 27.6211 118.262 21.4648 118.262 13.9766C118.262 5.58984 125.246 0.046875 132.336 0.046875Z" fill="#231F20"/>
<path d="M150.047 19.6992C150.191 23.0469 152.316 25.207 155.594 25.207C158.398 25.207 160.957 23.0469 160.957 19.918C160.957 15.8125 156.816 14.7695 155.016 14.2305C152.605 13.5078 148.105 12.5 148.105 7.21094C148.105 3.07031 151.379 0.046875 155.594 0.046875C159.949 0.046875 162.973 3.39453 162.973 7.28125H160.309C160.309 4.58203 158.113 2.45703 155.594 2.45703C152.531 2.45703 150.77 4.79688 150.77 7.10156C150.77 10.3398 153.613 11.0977 157.105 12.1055C163.656 13.8711 163.617 19.0156 163.617 19.8086C163.617 23.9102 160.309 27.6211 155.594 27.6211C152.137 27.6211 147.492 25.5664 147.387 19.6992H150.047Z" fill="#231F20"/>
<path d="M168.465 27.7812H218.426V0H168.465V27.7812Z" fill="#F68712"/>
<path d="M171.949 12.6758C171.949 12.6758 171.762 3.78516 180.863 3.78516C180.863 3.78516 188.438 3.16798 189.781 8.23438C189.781 8.23438 191.086 3.78516 197.672 3.78516C204.258 3.78516 207.672 8.32422 207.672 12.9883V15.5352C207.672 15.5352 207.734 19.1367 210.281 19.1367C212.832 19.1367 213.078 15.2852 213.078 15.2852L212.457 12.2422L216.746 12.1172L215.586 15.1602C215.586 15.1602 214.941 23.9844 209.539 23.9844C209.539 23.9844 203.102 24.8555 201.957 15.0977C201.957 15.0977 202.043 10.8125 197.98 10.8125C197.98 10.8125 194.566 10.6875 194.441 14.7891V21.6836C194.441 21.6836 194.348 25.1016 189.969 25.1016C186.086 25.1016 185.992 21.5 185.992 21.5V19.5898C185.992 19.5898 186.707 15.4258 182.699 15.4258C179.469 15.4258 179.59 19.5273 179.59 19.5273V21.8086C179.59 21.8086 179.672 25.1016 175.117 25.1016C171.762 25.1016 171.949 21.9961 171.949 21.9961V12.6758Z" fill="white"/>
<path d="M171.949 12.6758C171.949 12.6758 171.762 3.78516 180.863 3.78516C180.863 3.78516 188.438 3.16797 189.781 8.23437C189.781 8.23437 191.086 3.78516 197.672 3.78516C204.258 3.78516 207.672 8.32422 207.672 12.9883V15.5352C207.672 15.5352 207.734 19.1367 210.281 19.1367C212.832 19.1367 213.078 15.2852 213.078 15.2852L212.457 12.2422L216.746 12.1172L215.586 15.1602C215.586 15.1602 214.941 23.9844 209.539 23.9844C209.539 23.9844 203.102 24.8555 201.957 15.0977C201.957 15.0977 202.043 10.8125 197.98 10.8125C197.98 10.8125 194.566 10.6875 194.441 14.7891V21.6836C194.441 21.6836 194.348 25.1016 189.969 25.1016C186.086 25.1016 185.992 21.5 185.992 21.5V19.5898C185.992 19.5898 186.707 15.4258 182.699 15.4258C179.469 15.4258 179.59 19.5273 179.59 19.5273V21.8086C179.59 21.8086 179.672 25.1016 175.117 25.1016C171.762 25.1016 171.949 21.9961 171.949 21.9961V12.6758Z" stroke="white" stroke-width="1.86" stroke-miterlimit="10"/>
<path d="M204.762 10.6367C204.762 11.0078 204.461 11.3125 204.09 11.3125C203.715 11.3125 203.414 11.0078 203.414 10.6367C203.414 10.2656 203.715 9.96094 204.09 9.96094C204.461 9.96094 204.762 10.2656 204.762 10.6367Z" fill="#F68712"/>
</svg>
