<?xml version="1.0" encoding="utf-8"?>
<!-- Generator: Adobe Illustrator 21.0.2, SVG Export Plug-In . SVG Version: 6.00 Build 0)  -->
<svg version="1.1" id="S4_Batman" xmlns="http://www.w3.org/2000/svg" xmlns:xlink="http://www.w3.org/1999/xlink" x="0px" y="0px"
	 viewBox="0 0 89.6562 110.1211" enable-background="new 0 0 89.6562 110.1211" xml:space="preserve">
<g id="change1">
	<path fill="#F3C9B4" d="M11.0573,88.6667c0,0,5-20.3333,9.8333-22.1667s24-2.8333,24-2.8333l16.8333,0.6667L70.8906,70
		l5.8333,9.1667l3.1667,8l-1.5,4l-7.6667,5.1667l-8.3333,5.5l-5.3333,3.5l-12,0.5l-10.6667-1.1667l-14-4.5l-5.5-6.5L11.0573,88.6667
		z"/>
</g>
<g id="s4-batman-x_1_">
	<path opacity="0.15" d="M12.8906,81.3333c21.6291,11.7373,43.1852,11.8183,64.6667,0l0,9.8333l-14,11.3333l-9.8333,3.3333
		l-14.5,1.5l-14.5-5.8333l-8.1667-7.1667l-6.1667-7.6667l1-2.6667L12.8906,81.3333z"/>
</g>
<g id="change2">
	<g>
		<path fill="#2D2D2D" d="M31.5573,104.8333l5-5.1667h18.3333l3.1667,4C58.0573,103.6667,52.8906,111.1667,31.5573,104.8333z"/>
	</g>
	<path fill="#2D2D2D" d="M10.1406,5l12.5,11.5c0,0,25-13.25,42.5,0.5l13.25-12.75c0,0,9.25,52.75,9.25,59.25s-7.25,23-7.25,23
		l-9.25-17l-8.75-5.25l-15.75-1.5l-15.25,1.5l-7.5,1.5l-3.5,2l-2.25,5.75l-6.5,11.25l-2,2.75L2.3906,71c0,0-1.5-13.75-1.25-14.5
		s3.5-17,3.5-17l2.25-15L10.1406,5z"/>
</g>
<g id="change3">
	<path fill="#2D2D2D" d="M89.6484,59.1372C87.9307,37.3267,85.4932,20.2285,81.5,1.9658c-0.2002-0.9136-0.8936-1.6396-1.7969-1.8809
		c-0.9043-0.2417-1.8662,0.0415-2.4961,0.7339L65.1729,14.062c-6.2686-3.6152-13.2588-5.5166-20.3447-5.5166
		c-7.1665,0-14.2266,1.9419-20.5474,5.6343L12.6045,0.8525c-0.6226-0.71-1.5898-1.0093-2.5054-0.7729
		C9.1851,0.3154,8.4819,1.0464,8.2812,1.9688C3.3442,24.6724,0.5586,43.9419,0,59.3335c0,11.1172,3.1778,21.4043,8.5464,29.7771
		c0.116,0.2827,0.281,0.5406,0.4916,0.7644c8.1896,12.2874,21.1836,20.2461,35.7902,20.2461
		c24.7188,0,44.8281-22.7832,44.8281-50.7876C89.6562,59.2681,89.6533,59.2026,89.6484,59.1372z M35.6002,103.8673l2.0345-2.0343
		h14.7617l1.9556,1.9556c-3.0535,0.8648-6.2415,1.3325-9.5239,1.3325C41.6512,105.1211,38.5641,104.6788,35.6002,103.8673z
		 M59.5151,101.8812l-4.3149-4.3158c-0.4688-0.4688-1.1045-0.7324-1.7676-0.7324H36.5991c-0.6631,0-1.2988,0.2637-1.7676,0.7324
		l-4.4334,4.4334c-6.6521-2.9823-12.4374-7.9575-16.8013-14.2836l3.4368-11.3802c1.897-6.2812,7.5801-10.502,14.1421-10.502H57.624
		c5.7451,0,11.0117,3.3721,13.3799,8.5039l5.373,12.8972C72.0339,93.7095,66.2208,98.811,59.5151,101.8812z M79.5214,81.7827
		l-3.9393-9.4536C72.3623,65.3457,65.3135,60.833,57.624,60.833H31.1758c-8.7827,0-16.3896,5.6484-18.9282,14.0566l-2.0986,6.949
		c-3.272-6.6316-5.15-14.2783-5.1505-22.4143c0.5063-13.9058,2.9043-31.2217,7.1323-51.5249l9.7837,11.1675
		c0.8198,0.936,2.2061,1.127,3.2495,0.4443c5.9634-3.9028,12.7632-5.9658,19.6641-5.9658c6.8145,0,13.541,2.0151,19.4502,5.8271
		c1.0293,0.6631,2.3838,0.4854,3.2061-0.4199L77.625,7.793c3.3467,16.2656,5.4824,32.02,7.0312,51.6377
		C84.6415,67.5483,82.7715,75.1705,79.5214,81.7827z"/>
	<path fill="#2D2D2D" d="M45.7744,77.833h-6.8838c-1.3809,0-2.5,1.1191-2.5,2.5s1.1191,2.5,2.5,2.5h6.8838
		c2.4873,0,4.9229,1.0088,6.6816,2.7676c0.4883,0.4883,1.1279,0.7324,1.7676,0.7324s1.2793-0.2441,1.7676-0.7324
		c0.9766-0.9766,0.9766-2.5586,0-3.5352C53.2617,79.3359,49.6338,77.833,45.7744,77.833z"/>
</g>
<g id="s4-batman-x">
	<path fill="#FFFFFF" d="M19.8291,44.4832l-1.8937,5.7924c-0.2333,0.7137,0.2434,1.4627,0.9887,1.5534l17.3771,2.1164
		c1.3223,0.161,1.8725-1.6385,0.6862-2.2445l-15.4835-7.9088C20.8521,43.4591,20.0567,43.7873,19.8291,44.4832z"/>
	<path fill="#FFFFFF" d="M70.4373,44.3582l1.8937,5.7924c0.2333,0.7137-0.2434,1.4627-0.9887,1.5534l-17.3771,2.1164
		c-1.3223,0.161-1.8725-1.6385-0.6862-2.2445l15.4834-7.9088C69.4144,43.3341,70.2098,43.6623,70.4373,44.3582z"/>
</g>
</svg>
