<svg width="50" height="50" viewBox="0 0 50 50" fill="none" xmlns="http://www.w3.org/2000/svg">
<path d="M31.1375 26.9463L32.585 22.7163C31.9953 22.5336 31.4482 22.2345 30.9762 21.8366C30.5042 21.4387 30.1168 20.9501 29.8371 20.3998C29.5573 19.8495 29.3909 19.2486 29.3475 18.6328C29.3042 18.0169 29.3849 17.3987 29.5849 16.8146C29.7849 16.2306 30.1 15.6926 30.5117 15.2325C30.9233 14.7724 31.4231 14.3997 31.9814 14.1363C32.5398 13.8729 33.1453 13.7242 33.7621 13.6991C34.379 13.674 34.9946 13.7729 35.5725 13.99L37.02 9.7575C35.8858 9.34807 34.6815 9.16853 33.4772 9.22933C32.2729 9.29013 31.0928 9.59006 30.0056 10.1116C28.9184 10.6332 27.9459 11.366 27.1449 12.2673C26.3438 13.1685 25.7301 14.2203 25.3397 15.3611C24.9493 16.502 24.7899 17.7091 24.8707 18.9123C24.9516 20.1154 25.2712 21.2903 25.8109 22.3686C26.3505 23.447 27.0994 24.4071 28.0139 25.193C28.9285 25.9789 29.9903 26.5749 31.1375 26.9463Z" fill="white"/>
<path d="M33.8037 23.0825L32.3462 27.3387C33.4466 27.7877 34.3336 28.6404 34.8256 29.7222C35.3176 30.804 35.3773 32.033 34.9926 33.1574C34.6078 34.2818 33.8077 35.2166 32.7561 35.7701C31.7045 36.3237 30.481 36.4543 29.3362 36.135L27.8912 40.3575C30.1631 41.0694 32.6233 40.866 34.7474 39.7906C36.8715 38.7151 38.4916 36.8527 39.2626 34.6001C40.0335 32.3476 39.8943 29.883 38.8746 27.7315C37.855 25.5801 36.0354 23.9119 33.8037 23.0825V23.0825Z" fill="white"/>
<path d="M27.2263 34.8837C26.902 34.5511 26.6343 34.1677 26.4338 33.7487C26.0125 32.8675 25.9913 31.9362 25.9838 30.9987C25.9938 30.4224 25.9638 29.846 25.8938 29.2737C25.577 27.1901 24.4849 25.3031 22.8361 23.9903C21.1873 22.6776 19.1036 22.036 17.002 22.194C14.9004 22.352 12.936 23.298 11.502 24.8425C10.0681 26.3871 9.27046 28.4162 9.26877 30.5237C9.26877 35.4512 11.82 38.1625 17.1588 40.1237L18.595 35.9462C15.0588 34.5 13.75 32.6537 13.75 30.5137C13.748 30.0043 13.8469 29.4995 14.0409 29.0285C14.235 28.5575 14.5203 28.1295 14.8806 27.7693C15.2408 27.4091 15.6687 27.1237 16.1398 26.9297C16.6108 26.7356 17.1156 26.6368 17.625 26.6387C18.7775 26.6487 19.8938 27.1137 20.6138 28.03C21.6138 29.3037 21.395 30.8262 21.5075 32.3287C21.6294 33.9373 22.175 35.4849 23.0887 36.8142C24.0025 38.1436 25.2519 39.2074 26.71 39.8975L28.1675 35.625C28.1625 35.6387 27.3 34.9587 27.2263 34.8837Z" fill="white"/>
</svg>
