<svg width="121" height="119" viewBox="0 0 121 119" fill="none" xmlns="http://www.w3.org/2000/svg">
<path fill-rule="evenodd" clip-rule="evenodd" d="M60.6094 0.445312C27.2617 0.445312 0.222656 27.4805 0.222656 60.832C0.222656 87.5156 17.5234 110.148 41.5195 118.137C44.5352 118.695 45.6445 116.824 45.6445 115.23C45.6445 113.789 45.5898 109.031 45.5625 103.988C28.7617 107.641 25.2188 96.8633 25.2188 96.8633C22.4688 89.8828 18.5117 88.0273 18.5117 88.0273C13.0312 84.2773 18.9258 84.3555 18.9258 84.3555C24.9883 84.7812 28.1836 90.5781 28.1836 90.5781C33.5664 99.8086 42.3086 97.1406 45.7539 95.5977C46.2969 91.6953 47.8633 89.0312 49.5898 87.5234C36.1758 85.9961 22.0742 80.8164 22.0742 57.6797C22.0742 51.0859 24.4336 45.6992 28.2969 41.4688C27.6719 39.9492 25.6055 33.8086 28.8828 25.4883C28.8828 25.4883 33.9531 23.8672 45.4922 31.6797C50.3125 30.3398 55.4766 29.6719 60.6094 29.6484C65.7422 29.6719 70.9102 30.3398 75.7383 31.6797C87.2617 23.8672 92.3281 25.4883 92.3281 25.4883C95.6133 33.8086 93.5469 39.9492 92.918 41.4688C96.7891 45.6992 99.1328 51.0859 99.1328 57.6797C99.1328 80.8711 85.0078 85.9805 71.5586 87.4766C73.7266 89.3477 75.6562 93.0234 75.6562 98.6562C75.6562 106.738 75.5859 113.242 75.5859 115.23C75.5859 116.836 76.6719 118.719 79.7344 118.129C103.715 110.133 120.996 87.5039 120.996 60.832C120.996 27.4805 93.9609 0.445312 60.6094 0.445312Z" fill="#1B1817"/>
</svg>
